<svg width="326" height="65" viewBox="0 0 326 65" fill="none" xmlns="http://www.w3.org/2000/svg">
<path d="M32.0996 64.498C49.7727 64.498 64.0996 50.1711 64.0996 32.498C64.0996 14.8249 49.7727 0.498047 32.0996 0.498047C14.4265 0.498047 0.0996094 14.8249 0.0996094 32.498C0.0996094 50.1711 14.4265 64.498 32.0996 64.498Z" fill="#C5A02E"/>
<path fill-rule="evenodd" clip-rule="evenodd" d="M22.5853 22.0216C18.864 22.0216 19.5837 19.3346 19.6603 17.422C19.7643 14.8637 21.7658 12.2205 23.3282 10.5035C24.658 9.0451 28.5694 7.11196 30.6571 7.11196C33.2798 7.11196 33.6341 6.90811 36.3088 7.86442C37.2103 8.18729 37.8123 8.64287 38.5661 9.08887C40.4391 10.1957 40.8427 10.7963 42.1232 12.4941C43.8306 14.7569 45.3301 20.135 43.3518 21.4921C42.6965 21.9409 42.0452 22.0216 41.3749 22.0216C39.5033 22.0216 36.3279 20.332 35.0132 18.7751C32.3755 15.6462 33.3482 11.9892 32.188 11.9892C30.3137 11.9892 31.2481 13.512 30.4957 15.5901C29.4135 18.5767 27.6377 20.5043 24.5732 21.5058C24.3228 21.5879 22.6592 22.0229 22.5839 22.0229L22.5853 22.0216ZM14.5121 23.5539V26.3407C14.5121 27.1766 14.9868 27.6965 14.98 28.4134C14.9718 29.2917 14.5121 29.6543 14.5121 30.5216C14.5121 32.541 14.3096 34.0814 15.4985 35.9434C16.0102 36.7451 16.4316 37.2732 17.236 37.8259C17.8913 38.276 19.1609 38.6632 19.9695 38.5045C21.3294 38.2377 21.6235 37.7124 22.5853 37.488C22.8261 39.2597 22.7385 38.8849 22.7248 40.6935C22.6975 44.0919 18.5576 46.4026 16.868 42.654C16.6395 42.1478 16.5082 41.3502 16.0389 41.1067C15.5204 40.8385 14.7912 41.3078 14.7912 41.9481C14.7912 43.7334 17.2483 46.5462 18.9666 46.5462H19.8025C21.9888 46.5462 23.5676 44.2998 24.1586 42.5459C24.6703 41.0273 24.7647 38.7139 24.2421 37.224C23.2516 34.4002 23.8138 36.5372 24.4391 33.63C24.7811 32.0416 24.5745 30.2425 24.0943 28.8703C23.8795 28.2574 23.3268 27.4407 23.2817 26.8975C19.9093 26.6157 22.7248 28.9264 22.7248 30.7993C22.7248 32.5601 22.8972 33.8502 21.7316 35.3798C20.1624 37.4374 18.0445 36.9025 16.8899 34.6903C16.1675 33.3057 16.3221 32.7927 16.3221 30.7993C17.8407 31.1537 17.6191 31.5819 18.5494 30.2425C18.0281 29.2561 17.7997 29.4983 17.2483 28.6186C16.0266 26.6677 16.3221 25.8878 16.3221 23.5539C16.3221 22.9861 17.381 21.5551 17.4357 20.9066H17.853C17.9583 22.1735 19.8723 23.6934 21.4716 23.6934H22.5853C28.962 23.6934 31.2851 17.7668 32.0512 17.5629C33.0759 20.3963 37.1789 23.6934 41.2381 23.6934H42.3517C43.9414 23.6934 45.8677 22.1502 45.9717 20.9066H46.389C46.4601 21.7726 47.5026 22.7275 47.5026 24.112C47.5026 25.9836 47.6859 26.7935 46.6298 28.5338C46.0209 29.538 45.5407 29.2452 45.2753 30.3821C46.2343 31.4862 46.0907 31.129 47.5026 30.8007C47.5026 32.6832 47.5683 33.3618 46.9211 34.6779C45.813 36.9312 43.6459 37.4196 42.0931 35.3812C40.9275 33.8516 41.0999 32.5615 41.0999 30.8007C41.0999 28.8949 43.9154 26.6184 40.543 26.8989C40.3666 27.6541 39.9849 28.1452 39.7304 28.8717C38.3308 32.8693 40.1258 35.3045 40.1258 35.6767C40.1258 36.2526 38.3801 38.7234 39.6688 42.5445C40.2653 44.3149 41.8236 46.5449 44.0235 46.5449H44.8581C46.5436 46.5449 49.0335 43.6582 49.0335 41.9467C49.0335 40.8796 48.0758 41.1108 47.5026 41.1108C47.3822 42.5555 45.9676 44.594 44.3012 44.594C42.6513 44.594 41.0999 42.4214 41.0999 40.8317C41.0999 39.1297 41.0492 39.1421 41.2558 37.4894C42.0261 37.67 43.1452 38.6016 44.1617 38.6016C45.4696 38.6016 47.0826 37.6577 47.6982 36.8478C49.4494 34.5439 49.3112 33.1634 49.3112 30.5203C49.3112 29.6926 48.8256 29.1248 48.8256 28.4298C48.8256 27.7348 49.3112 27.167 49.3112 26.3393C49.3112 24.0245 49.5083 22.7809 48.147 20.6767C47.4588 19.6151 46.363 19.1267 46.1578 18.2101C45.3273 14.5244 45.8417 15.4642 44.2657 12.4394C42.1177 8.31452 37.5866 5.29785 32.608 5.29785C29.3396 5.29785 27.0617 5.59885 24.5157 7.22826C19.9065 10.1793 18.704 13.2233 17.697 17.9597C17.3222 19.7286 16.6983 18.8968 15.8378 20.4168C15.4875 21.0324 14.5135 22.7467 14.5135 23.5497L14.5121 23.5539Z" fill="white" stroke="white" stroke-width="0.48"/>
<path fill-rule="evenodd" clip-rule="evenodd" d="M19.6629 51.5625V53.0948C19.6629 55.3672 22.1474 58.0104 24.1722 58.3346C29.6241 59.2102 30.2001 56.0594 31.077 55.742C31.077 54.6735 31.2412 55.1004 30.2972 53.9895C29.2355 54.0264 28.7444 56.9364 25.3364 56.6217C23.1174 56.4165 21.4729 54.2754 21.4729 52.1193C21.4729 50.2956 23.4279 48.0779 26.0656 48.0779C30.0003 48.0779 31.4696 55.11 34.0786 57.1964C37.8765 60.2335 44.1616 57.6588 44.1616 52.8157C44.1616 50.8921 43.9002 49.6718 42.5527 48.1559C41.9945 47.5293 39.6537 46.2665 39.0107 46.2665C36.678 46.2665 36.4263 46.1776 34.3344 47.4376C33.701 47.8193 32.7461 48.8208 32.7461 49.7497L33.53 50.9578C34.4617 50.7348 34.9008 48.0765 38.0352 48.0765C40.0901 48.0765 42.3502 49.9467 42.3502 52.5352C42.3502 55.3357 37.7876 59.2991 33.9993 54.2057C33.0703 52.9566 31.5271 48.0889 28.2491 46.7235C26.6608 46.0627 24.4499 45.9792 22.9956 46.9547C22.4702 47.3063 21.8779 47.5402 21.4045 48.0081C20.7806 48.6238 19.6602 50.4311 19.6602 51.557L19.6629 51.5625Z" fill="white" stroke="white" stroke-width="0.48"/>
<path d="M92.0674 45.498C91.8114 45.498 91.5938 45.4084 91.4146 45.2292C91.2354 45.05 91.1458 44.8324 91.1458 44.5764V39.6612H78.973C78.6914 39.6612 78.461 39.5716 78.2818 39.3924C78.1282 39.2132 78.0514 38.9956 78.0514 38.7396V36.1284C78.0514 35.9748 78.077 35.7956 78.1282 35.5908C78.205 35.3604 78.3202 35.1556 78.4738 34.9764L89.8018 19.2708C90.1346 18.8356 90.6082 18.618 91.2226 18.618H95.4082C95.6642 18.618 95.8818 18.7076 96.061 18.8868C96.2402 19.066 96.3298 19.2836 96.3298 19.5396V35.13H99.7474C100.055 35.13 100.285 35.2196 100.439 35.3988C100.618 35.5524 100.707 35.77 100.707 36.0516V38.7396C100.707 38.9956 100.618 39.2132 100.439 39.3924C100.259 39.5716 100.042 39.6612 99.7858 39.6612H96.3298V44.5764C96.3298 44.8324 96.2402 45.05 96.061 45.2292C95.8818 45.4084 95.6642 45.498 95.4082 45.498H92.0674ZM83.389 35.2836H91.261V24.186L83.389 35.2836ZM105.866 45.498C105.61 45.498 105.393 45.4084 105.213 45.2292C105.034 45.05 104.945 44.8324 104.945 44.5764V19.578C104.945 19.2964 105.034 19.066 105.213 18.8868C105.393 18.7076 105.61 18.618 105.866 18.618H122.762C123.044 18.618 123.274 18.7076 123.453 18.8868C123.633 19.066 123.722 19.2964 123.722 19.578V22.1124C123.722 22.3684 123.633 22.586 123.453 22.7652C123.274 22.9444 123.044 23.034 122.762 23.034H110.129V29.8308H121.917C122.199 29.8308 122.429 29.9204 122.609 30.0996C122.788 30.2532 122.877 30.4708 122.877 30.7524V33.1332C122.877 33.4148 122.788 33.6452 122.609 33.8244C122.429 33.978 122.199 34.0548 121.917 34.0548H110.129V41.082H123.069C123.351 41.082 123.581 41.1716 123.761 41.3508C123.94 41.53 124.029 41.7604 124.029 42.042V44.5764C124.029 44.8324 123.94 45.05 123.761 45.2292C123.581 45.4084 123.351 45.498 123.069 45.498H105.866ZM136.441 45.498C136.031 45.498 135.711 45.3956 135.481 45.1908C135.25 44.986 135.084 44.73 134.982 44.4228L126.764 19.77C126.713 19.642 126.687 19.5268 126.687 19.4244C126.687 19.194 126.764 19.002 126.918 18.8484C127.071 18.6948 127.263 18.618 127.494 18.618H130.873C131.231 18.618 131.5 18.7204 131.679 18.9252C131.884 19.1044 132.012 19.2836 132.063 19.4628L138.553 39.2388L145.004 19.4628C145.081 19.2836 145.209 19.1044 145.388 18.9252C145.593 18.7204 145.874 18.618 146.233 18.618H149.612C149.817 18.618 149.996 18.6948 150.15 18.8484C150.329 19.002 150.418 19.194 150.418 19.4244C150.418 19.5268 150.393 19.642 150.342 19.77L142.124 44.4228C142.022 44.73 141.855 44.986 141.625 45.1908C141.394 45.3956 141.074 45.498 140.665 45.498H136.441ZM150.843 45.498C150.639 45.498 150.447 45.4212 150.267 45.2676C150.114 45.114 150.037 44.922 150.037 44.6916C150.037 44.5892 150.063 44.474 150.114 44.346L159.368 19.578C159.445 19.322 159.586 19.1044 159.791 18.9252C160.021 18.7204 160.328 18.618 160.712 18.618H164.898C165.282 18.618 165.576 18.7204 165.781 18.9252C165.986 19.1044 166.139 19.322 166.242 19.578L175.496 44.346C175.522 44.474 175.535 44.5892 175.535 44.6916C175.535 44.922 175.458 45.114 175.304 45.2676C175.151 45.4212 174.971 45.498 174.767 45.498H171.426C171.067 45.498 170.799 45.4212 170.619 45.2676C170.466 45.0884 170.363 44.922 170.312 44.7684L168.507 40.0836H157.103L155.298 44.7684C155.247 44.922 155.131 45.0884 154.952 45.2676C154.799 45.4212 154.543 45.498 154.184 45.498H150.843ZM158.447 35.6676H167.163L162.786 23.802L158.447 35.6676ZM187.804 45.498C187.548 45.498 187.33 45.4084 187.151 45.2292C186.972 45.05 186.882 44.8324 186.882 44.5764V19.578C186.882 19.2964 186.972 19.066 187.151 18.8868C187.33 18.7076 187.548 18.618 187.804 18.618H198.94C201.013 18.618 202.703 18.938 204.009 19.578C205.314 20.1924 206.274 21.05 206.889 22.1508C207.529 23.2516 207.849 24.5316 207.849 25.9908C207.849 26.9636 207.669 27.8212 207.311 28.5636C206.978 29.2804 206.556 29.8692 206.044 30.33C205.557 30.7908 205.071 31.1492 204.585 31.4052C205.583 31.866 206.466 32.634 207.234 33.7092C208.002 34.7844 208.386 36.0644 208.386 37.5492C208.386 39.0852 208.041 40.4548 207.349 41.658C206.658 42.8612 205.634 43.8084 204.277 44.4996C202.921 45.1652 201.244 45.498 199.247 45.498H187.804ZM192.22 41.4276H198.633C200.015 41.4276 201.065 41.0564 201.781 40.314C202.498 39.546 202.857 38.6244 202.857 37.5492C202.857 36.4228 202.485 35.4884 201.743 34.746C201.026 34.0036 199.989 33.6324 198.633 33.6324H192.22V41.4276ZM192.22 29.6388H198.249C199.605 29.6388 200.617 29.3188 201.282 28.6788C201.973 28.0132 202.319 27.1556 202.319 26.106C202.319 25.0308 201.973 24.1988 201.282 23.61C200.617 22.9956 199.605 22.6884 198.249 22.6884H192.22V29.6388ZM214.129 45.498C213.873 45.498 213.655 45.4084 213.476 45.2292C213.297 45.05 213.207 44.8324 213.207 44.5764V19.578C213.207 19.2964 213.297 19.066 213.476 18.8868C213.655 18.7076 213.873 18.618 214.129 18.618H224.074C227.172 18.618 229.617 19.3348 231.409 20.7684C233.201 22.202 234.097 24.2884 234.097 27.0276C234.097 28.922 233.623 30.4964 232.676 31.7508C231.754 33.0052 230.513 33.914 228.951 34.4772L234.558 44.2692C234.634 44.4228 234.673 44.5636 234.673 44.6916C234.673 44.922 234.583 45.114 234.404 45.2676C234.25 45.4212 234.071 45.498 233.866 45.498H230.372C229.937 45.498 229.604 45.3828 229.374 45.1524C229.143 44.922 228.964 44.6916 228.836 44.4612L223.882 35.3604H218.545V44.5764C218.545 44.8324 218.455 45.05 218.276 45.2292C218.122 45.4084 217.905 45.498 217.623 45.498H214.129ZM218.545 31.0212H223.959C225.521 31.0212 226.686 30.6756 227.454 29.9844C228.222 29.2676 228.606 28.2692 228.606 26.9892C228.606 25.7092 228.222 24.7108 227.454 23.994C226.711 23.2516 225.546 22.8804 223.959 22.8804H218.545V31.0212ZM237.393 45.498C237.189 45.498 236.997 45.4212 236.817 45.2676C236.664 45.114 236.587 44.922 236.587 44.6916C236.587 44.5892 236.613 44.474 236.664 44.346L245.918 19.578C245.995 19.322 246.136 19.1044 246.341 18.9252C246.571 18.7204 246.878 18.618 247.262 18.618H251.448C251.832 18.618 252.126 18.7204 252.331 18.9252C252.536 19.1044 252.689 19.322 252.792 19.578L262.046 44.346C262.072 44.474 262.085 44.5892 262.085 44.6916C262.085 44.922 262.008 45.114 261.854 45.2676C261.701 45.4212 261.521 45.498 261.317 45.498H257.976C257.617 45.498 257.349 45.4212 257.169 45.2676C257.016 45.0884 256.913 44.922 256.862 44.7684L255.057 40.0836H243.653L241.848 44.7684C241.797 44.922 241.681 45.0884 241.502 45.2676C241.349 45.4212 241.093 45.498 240.734 45.498H237.393ZM244.997 35.6676H253.713L249.336 23.802L244.997 35.6676ZM266.591 45.498C266.335 45.498 266.118 45.4084 265.938 45.2292C265.759 45.05 265.67 44.8324 265.67 44.5764V19.5396C265.67 19.2836 265.759 19.066 265.938 18.8868C266.118 18.7076 266.335 18.618 266.591 18.618H270.201C270.482 18.618 270.7 18.7076 270.854 18.8868C271.033 19.066 271.122 19.2836 271.122 19.5396V44.5764C271.122 44.8324 271.033 45.05 270.854 45.2292C270.7 45.4084 270.482 45.498 270.201 45.498H266.591ZM278.066 45.498C277.81 45.498 277.593 45.4084 277.413 45.2292C277.234 45.05 277.145 44.8324 277.145 44.5764V19.578C277.145 19.2964 277.234 19.066 277.413 18.8868C277.593 18.7076 277.81 18.618 278.066 18.618H287.436C290.021 18.618 292.146 19.0148 293.81 19.8084C295.5 20.602 296.767 21.7796 297.612 23.3412C298.482 24.9028 298.93 26.81 298.956 29.0628C299.007 30.1892 299.033 31.1876 299.033 32.058C299.033 32.9284 299.007 33.914 298.956 35.0148C298.905 37.3956 298.469 39.3668 297.65 40.9284C296.831 42.4644 295.589 43.6164 293.925 44.3844C292.287 45.1268 290.188 45.498 287.628 45.498H278.066ZM282.482 41.082H287.436C288.869 41.082 290.034 40.8772 290.93 40.4676C291.826 40.058 292.479 39.4052 292.889 38.5092C293.324 37.5876 293.554 36.3844 293.58 34.8996C293.605 34.1316 293.618 33.466 293.618 32.9028C293.644 32.314 293.644 31.738 293.618 31.1748C293.618 30.586 293.605 29.9204 293.58 29.178C293.529 27.0788 293.004 25.53 292.005 24.5316C291.007 23.5332 289.42 23.034 287.244 23.034H282.482V41.082ZM313.476 45.882C311.095 45.882 309.098 45.5364 307.485 44.8452C305.898 44.1284 304.682 43.2068 303.837 42.0804C303.018 40.9284 302.583 39.7252 302.532 38.4708C302.532 38.2404 302.609 38.0484 302.762 37.8948C302.916 37.7412 303.108 37.6644 303.338 37.6644H306.756C307.089 37.6644 307.332 37.7412 307.485 37.8948C307.665 38.0228 307.818 38.1892 307.946 38.394C308.1 38.8804 308.394 39.3668 308.829 39.8532C309.265 40.314 309.853 40.698 310.596 41.0052C311.364 41.3124 312.324 41.466 313.476 41.466C315.319 41.466 316.689 41.1588 317.585 40.5444C318.506 39.93 318.967 39.098 318.967 38.0484C318.967 37.306 318.724 36.7172 318.237 36.282C317.751 35.8212 316.996 35.4116 315.972 35.0532C314.973 34.6692 313.642 34.2724 311.978 33.8628C310.058 33.402 308.445 32.8516 307.14 32.2116C305.86 31.546 304.887 30.714 304.221 29.7156C303.581 28.7172 303.261 27.45 303.261 25.914C303.261 24.4292 303.658 23.1108 304.452 21.9588C305.271 20.8068 306.423 19.898 307.908 19.2324C309.418 18.5668 311.21 18.234 313.284 18.234C314.948 18.234 316.42 18.4644 317.7 18.9252C318.98 19.3604 320.042 19.9492 320.887 20.6916C321.732 21.4084 322.372 22.1892 322.807 23.034C323.268 23.8532 323.511 24.6596 323.537 25.4532C323.537 25.658 323.46 25.85 323.306 26.0292C323.178 26.1828 322.986 26.2596 322.73 26.2596H319.159C318.954 26.2596 318.749 26.2084 318.545 26.106C318.34 26.0036 318.173 25.8116 318.045 25.53C317.892 24.7364 317.393 24.058 316.548 23.4948C315.703 22.9316 314.615 22.65 313.284 22.65C311.901 22.65 310.788 22.906 309.943 23.418C309.098 23.93 308.676 24.7236 308.676 25.7988C308.676 26.5156 308.881 27.1172 309.29 27.6036C309.725 28.0644 310.404 28.474 311.325 28.8324C312.273 29.1908 313.514 29.5748 315.05 29.9844C317.226 30.4708 319.005 31.034 320.388 31.674C321.77 32.314 322.781 33.1332 323.421 34.1316C324.061 35.1044 324.381 36.346 324.381 37.8564C324.381 39.546 323.921 40.9924 322.999 42.1956C322.103 43.3732 320.836 44.282 319.197 44.922C317.559 45.562 315.652 45.882 313.476 45.882Z" fill="#C5A02E"/>
</svg>
