<svg width="40" height="40" viewBox="0 0 40 40" fill="none" xmlns="http://www.w3.org/2000/svg">
<path d="M20 40C31.0457 40 40 31.0457 40 20C40 8.9543 31.0457 0 20 0C8.9543 0 0 8.9543 0 20C0 31.0457 8.9543 40 20 40Z" fill="white"/>
<path fill-rule="evenodd" clipRule="evenodd" d="M14.054 13.4522C11.7283 13.4522 12.178 11.7729 12.2259 10.5775C12.2909 8.97851 13.5418 7.32652 14.5183 6.25341C15.3495 5.34191 17.7941 4.1337 19.0989 4.1337C20.7381 4.1337 20.9596 4.00629 22.6312 4.60398C23.1947 4.80578 23.5709 5.09051 24.0421 5.36926C25.2127 6.06101 25.4649 6.4364 26.2652 7.49753C27.3324 8.91181 28.2695 12.2731 27.0331 13.1213C26.6235 13.4018 26.2165 13.4522 25.7975 13.4522C24.6278 13.4522 22.6432 12.3962 21.8215 11.4231C20.1729 9.4676 20.7808 7.182 20.0557 7.182C18.8843 7.182 19.4683 8.13369 18.998 9.43254C18.3217 11.2991 17.2118 12.5039 15.2965 13.1298C15.14 13.1811 14.1002 13.4531 14.0532 13.4531L14.054 13.4522ZM9.00829 14.4099V16.1517C9.00829 16.6741 9.30499 16.999 9.30072 17.4471C9.29559 17.996 9.00829 18.2226 9.00829 18.7647C9.00829 20.0268 8.88174 20.9896 9.62479 22.1534C9.94459 22.6544 10.208 22.9845 10.7107 23.3299C11.1203 23.6112 11.9138 23.8532 12.4192 23.754C13.2691 23.5873 13.4529 23.259 14.054 23.1187C14.2045 24.226 14.1498 23.9918 14.1413 25.1221C14.1242 27.2461 11.5367 28.6903 10.4807 26.3475C10.3379 26.0311 10.2558 25.5326 9.96255 25.3804C9.63848 25.2128 9.18273 25.5061 9.18273 25.9063C9.18273 27.0221 10.7184 28.7801 11.7924 28.7801H12.3148C13.6812 28.7801 14.668 27.3761 15.0374 26.2799C15.3572 25.3308 15.4162 23.8849 15.0895 22.9537C14.4705 21.1889 14.8219 22.5245 15.2126 20.7075C15.4264 19.7147 15.2973 18.5903 14.9972 17.7327C14.8629 17.3496 14.5175 16.8391 14.4893 16.4997C12.3815 16.3235 14.1413 17.7677 14.1413 18.9383C14.1413 20.0388 14.249 20.8451 13.5205 21.8011C12.5397 23.0871 11.2161 22.7528 10.4944 21.3701C10.0429 20.5048 10.1395 20.1841 10.1395 18.9383C11.0887 19.1598 10.9501 19.4274 11.5316 18.5903C11.2058 17.9738 11.063 18.1251 10.7184 17.5753C9.95485 16.356 10.1395 15.8686 10.1395 14.4099C10.1395 14.055 10.8014 13.1606 10.8356 12.7553H11.0964C11.1622 13.5471 12.3584 14.4971 13.358 14.4971H14.054C18.0395 14.4971 19.4914 10.7929 19.9702 10.6655C20.6107 12.4364 23.175 14.4971 25.712 14.4971H26.408C27.4016 14.4971 28.6056 13.5326 28.6705 12.7553H28.9313C28.9758 13.2966 29.6273 13.8934 29.6273 14.7587C29.6273 15.9285 29.7419 16.4347 29.0818 17.5223C28.7013 18.1499 28.4012 17.967 28.2353 18.6775C28.8347 19.3676 28.7449 19.1444 29.6273 18.9392C29.6273 20.1157 29.6684 20.5399 29.2639 21.3624C28.5713 22.7707 27.2169 23.076 26.2464 21.8019C25.5179 20.846 25.6257 20.0396 25.6257 18.9392C25.6257 17.7481 27.3854 16.3252 25.2776 16.5005C25.1673 16.9725 24.9288 17.2795 24.7697 17.7335C23.895 20.232 25.0168 21.754 25.0168 21.9866C25.0168 22.3466 23.9258 23.8909 24.7312 26.2791C25.104 27.3855 26.078 28.7793 27.4529 28.7793H27.9745C29.028 28.7793 30.5842 26.9751 30.5842 25.9054C30.5842 25.2384 29.9856 25.3829 29.6273 25.3829C29.5521 26.2859 28.668 27.5599 27.6265 27.5599C26.5953 27.5599 25.6257 26.2021 25.6257 25.2085C25.6257 24.1448 25.594 24.1525 25.7231 23.1196C26.2045 23.2325 26.904 23.8147 27.5393 23.8147C28.3567 23.8147 29.3649 23.2248 29.7496 22.7186C30.8441 21.2786 30.7577 20.4159 30.7577 18.7639C30.7577 18.2466 30.4542 17.8917 30.4542 17.4573C30.4542 17.023 30.7577 16.6681 30.7577 16.1508C30.7577 14.704 30.8809 13.9268 30.0301 12.6117C29.6 11.9481 28.9151 11.6429 28.7868 11.07C28.2678 8.76646 28.5893 9.35387 27.6043 7.46332C26.2618 4.88529 23.4298 2.99988 20.3183 2.99988C18.2755 2.99988 16.8518 3.188 15.2605 4.20639C12.3798 6.05076 11.6282 7.95328 10.9989 10.9135C10.7646 12.0191 10.3747 11.4992 9.83685 12.4492C9.61795 12.834 9.00915 13.9054 9.00915 14.4073L9.00829 14.4099Z" fill="#C5A02E" stroke="#C5A02E" strokeWidth="0.3"/>
<path fill-rule="evenodd" clipRule="evenodd" d="M12.2273 31.9152V32.8729C12.2273 34.2932 13.7801 35.9452 15.0456 36.1478C18.453 36.6951 18.813 34.7259 19.3611 34.5275C19.3611 33.8597 19.4637 34.1264 18.8737 33.4321C18.2102 33.4552 17.9032 35.2739 15.7733 35.0773C14.3863 34.949 13.3585 33.6108 13.3585 32.2633C13.3585 31.1235 14.5804 29.7374 16.229 29.7374C18.6882 29.7374 19.6065 34.1324 21.2371 35.4364C23.6108 37.3347 27.539 35.7254 27.539 32.6985C27.539 31.4963 27.3756 30.7336 26.5334 29.7861C26.1845 29.3945 24.7215 28.6053 24.3196 28.6053C22.8618 28.6053 22.7044 28.5497 21.397 29.3372C21.0011 29.5758 20.4043 30.2017 20.4043 30.7823L20.8942 31.5373C21.4765 31.3979 21.751 29.7365 23.71 29.7365C24.9943 29.7365 26.4069 30.9054 26.4069 32.5232C26.4069 34.2735 23.5552 36.7507 21.1875 33.5672C20.6069 32.7866 19.6424 29.7442 17.5937 28.8909C16.601 28.4779 15.2192 28.4257 14.3102 29.0354C13.9819 29.2551 13.6116 29.4014 13.3158 29.6938C12.9259 30.0786 12.2256 31.2081 12.2256 31.9118L12.2273 31.9152Z" fill="#C5A02E" stroke="#C5A02E" strokeWidth="0.3"/>
</svg>
